<svg width="320" height="72" viewBox="0 0 320 72" fill="none" xmlns="http://www.w3.org/2000/svg">
<g clip-path="url(#clip0_235_1704)">
<path d="M87.46 17.9299H121.87L121.19 22.7899C120.98 24.2499 120.25 24.8799 118.68 24.8799H108.96V54.6799H100.38V24.8799H90.71C89.14 24.8799 88.41 24.2499 88.2 22.7899L87.47 17.9299H87.46Z" fill="white"/>
<path d="M125.08 26.67H129.79C131.1 26.67 131.62 26.99 131.93 28.03L132.5 29.9699H132.71C133.65 27.2999 135.38 26.2 138.83 26.2H144.32L143.64 31.2199C143.43 32.6799 142.7 33.31 141.18 33.31H137.88C134.74 33.31 133.33 34.8799 133.33 38.1699V54.6899H125.07V26.66L125.08 26.67Z" fill="white"/>
<path d="M146.36 37.2299C146.36 30.0199 150.39 26.2 158.96 26.2H161.84C170.42 26.2 174.49 30.0199 174.49 37.2299V41.0999C174.49 42.6199 173.76 43.3499 172.13 43.3499H154.35V43.82C154.35 46.7999 155.76 48.06 159.16 48.06H170.45C171.97 48.06 172.7 48.69 172.91 50.15L173.54 54.7H158.95C150.32 54.7 146.35 51.0399 146.35 43.8699V37.2299H146.36ZM166.65 37.7999V37.1199C166.65 34.0299 165.34 32.83 161.74 32.83H159.28C155.67 32.83 154.37 34.0299 154.37 37.1199V37.7999H166.66H166.65Z" fill="white"/>
<path d="M178.23 45.3299C178.23 40.0999 181.21 37.4899 187.07 37.4899H197.32V35.9699C197.37 34.0299 196.48 33.2999 194.6 33.2999H182.83C181.32 33.2999 180.64 32.6699 180.43 31.2099L179.75 26.6599H193.92C202.97 26.6599 205.58 30.3199 205.58 36.6499V54.6899H200.82C199.51 54.6899 199.04 54.3699 198.67 53.3299L198.15 51.6499H197.94C196.69 53.8999 194.07 55.1499 190.57 55.1499H187.07C181.58 55.1499 178.23 52.8499 178.23 47.4099V45.3199V45.3299ZM191.87 48.7299C195.63 48.7299 197.31 47.4699 197.31 44.8099V43.1899H188.68C187.11 43.1899 186.48 43.7199 186.48 45.1799V46.6999C186.48 48.1599 187.11 48.7399 188.68 48.7399H191.87V48.7299Z" fill="white"/>
<path d="M210.66 36.97C210.66 29.97 214.74 26.2 221.48 26.2H225.04C228.28 26.2 230.63 27.3 231.73 29.18H231.99V16.47H240.25V54.69H235.49C234.13 54.69 233.66 54.37 233.35 53.33L232.83 51.65H232.57C231.32 53.9 228.7 55.15 225.2 55.15H221.49C214.43 55.15 210.67 51.12 210.67 44.38V36.95L210.66 36.97ZM227.13 48.47C230.43 48.47 231.99 47.26 231.99 43.97V37.38C231.99 34.08 230.42 32.88 227.13 32.88H223.73C220.43 32.88 218.92 34.08 218.92 37.38V43.97C218.92 47.26 220.44 48.47 223.73 48.47H227.13Z" fill="white"/>
<path d="M262.6 55C250.42 55 246.39 50.56 246.39 40.83V31.94C246.39 22.16 250.42 17.77 262.6 17.77H267.83C280.07 17.77 284.04 22.16 284.04 31.94V40.83C284.04 50.55 280.07 55 267.83 55H262.6ZM268.66 52.03C277.76 52.03 280.69 48.73 280.69 41.36V31.37C280.69 24 277.76 20.76 268.66 20.76H261.81C252.66 20.76 249.78 24 249.78 31.37V41.36C249.78 48.73 252.66 52.03 261.81 52.03H268.66Z" fill="white"/>
<path d="M298.59 21.0199C294.82 21.0199 293.41 22.2699 293.41 25.5199V27.5599C293.41 30.5899 294.46 31.6899 298.22 32.5299L311.34 35.4599C317.35 36.8199 319.39 38.9599 319.39 43.8699V47.3199C319.39 52.5499 316.88 54.6899 310.66 54.6899H289.38L289.75 52.6499C289.85 51.9699 290.17 51.6999 290.85 51.6999H310.82C314.59 51.6999 316 50.4499 316 47.1999V43.8499C316 40.8199 314.95 39.7199 311.19 38.8799L298.07 35.9499C292.11 34.5899 290.07 32.4499 290.07 27.5299V25.3899C290.07 20.2099 292.53 18.0699 298.75 18.0699H317.89L317.52 20.1099C317.42 20.7399 317.1 20.9999 316.42 20.9999H298.59V21.0199Z" fill="white"/>
<path d="M5.34991 54.6599C-5.04009 37.8699 0.169907 15.7599 16.9599 5.36994C17.8399 4.82994 18.9899 5.09994 19.5299 5.97994C20.0699 6.85994 19.7999 8.00994 18.9199 8.54994C3.88991 17.8499 -0.780091 37.6499 8.52991 52.6899C9.99991 55.0699 11.7799 57.2499 13.7899 59.1599C14.5399 59.8699 14.5699 61.0499 13.8699 61.7999C13.1599 62.5499 11.9799 62.5799 11.2299 61.8799C8.97991 59.7499 6.99991 57.3199 5.34991 54.6599ZM33.9799 71.5799C41.2599 71.9599 48.3999 70.1199 54.6299 66.2699C71.4199 55.8799 76.6299 33.7799 66.2499 16.9799C65.8499 16.3399 65.4299 15.6999 64.9999 15.0899C64.3999 14.2499 63.2399 14.0499 62.3899 14.6499C61.5499 15.2499 61.3499 16.4199 61.9499 17.2599C62.3399 17.8099 62.7199 18.3799 63.0799 18.9599C72.3799 33.9999 67.7099 53.7999 52.6799 63.0999C47.1099 66.5499 40.7099 68.1899 34.1899 67.8599C33.1599 67.8099 32.2799 68.5999 32.2299 69.6299C32.2099 70.0199 32.3099 70.3999 32.5099 70.7099C32.8199 71.2099 33.3699 71.5599 33.9999 71.5899L33.9799 71.5799ZM27.3999 4.86994C35.3699 2.69994 43.7799 3.67994 51.0799 7.62994C51.9899 8.11994 53.1199 7.77994 53.6099 6.87994C54.0999 5.96994 53.7599 4.83994 52.8599 4.34994C44.7199 -0.0700603 35.3199 -1.16006 26.4199 1.25994C25.4199 1.52994 24.8399 2.55994 25.1099 3.54994C25.1599 3.72994 25.2299 3.88994 25.3199 4.03994C25.7399 4.72994 26.5799 5.07994 27.3999 4.85994V4.86994ZM12.1699 26.8799C13.1099 27.3199 14.2199 26.9099 14.6499 25.9699C16.5699 21.8399 19.6399 18.3899 23.5299 15.9799C34.4699 9.20994 48.8699 12.6099 55.6399 23.5499C56.7099 25.2799 57.5499 27.1399 58.1399 29.0699C58.4399 30.0599 59.4799 30.6199 60.4699 30.3199C61.4599 30.0199 62.0199 28.9799 61.7199 27.9899C61.0399 25.7499 60.0699 23.5999 58.8299 21.5899C50.9799 8.89994 34.2699 4.95994 21.5699 12.8099C17.0599 15.5999 13.4899 19.6099 11.2699 24.3999C10.9899 24.9899 11.0599 25.6599 11.3799 26.1699C11.5699 26.4699 11.8399 26.7199 12.1799 26.8799H12.1699ZM50.0299 58.8399C54.5399 56.0499 58.0999 52.0399 60.3299 47.2499C60.7599 46.3099 60.3599 45.1999 59.4199 44.7699C58.4799 44.3299 57.3699 44.7399 56.9399 45.6799C55.0199 49.8099 51.9499 53.2599 48.0599 55.6699C37.1199 62.4399 22.7199 59.0399 15.9499 48.0999C13.7899 44.6099 12.5899 40.6199 12.4699 36.5399C12.4399 35.5099 11.5799 34.6999 10.5499 34.7299C9.51991 34.7599 8.70991 35.6199 8.73991 36.6499C8.87991 41.3799 10.2799 46.0199 12.7799 50.0599C20.6299 62.7499 37.3399 66.6899 50.0399 58.8399H50.0299ZM25.5699 51.5299C31.6299 55.4699 39.5099 55.5599 45.6499 51.7599C54.4399 46.3299 57.1599 34.7599 51.7299 25.9699C51.1899 25.0899 50.0299 24.8199 49.1599 25.3599C48.2899 25.8999 48.0099 27.0599 48.5499 27.9299C52.8999 34.9599 50.7199 44.2199 43.6899 48.5699C38.7699 51.6099 32.4699 51.5399 27.6199 48.3899C26.7499 47.8299 25.5999 48.0699 25.0299 48.9399C24.6199 49.5699 24.6399 50.3499 25.0099 50.9399C25.1499 51.1699 25.3399 51.3699 25.5799 51.5199L25.5699 51.5299ZM18.8699 37.0299C19.8999 37.0699 20.7699 36.2699 20.8099 35.2399C21.0099 30.2499 23.6599 25.6999 27.9099 23.0699C30.7099 21.3399 33.9099 20.5899 37.1799 20.8899C38.2099 20.9899 39.1199 20.2299 39.2199 19.1999C39.3199 18.1699 38.5599 17.2599 37.5299 17.1599C33.4499 16.7799 29.4399 17.7199 25.9499 19.8799C20.6499 23.1599 17.3299 28.8399 17.0799 35.0799C17.0599 35.4699 17.1699 35.8299 17.3599 36.1399C17.6799 36.6499 18.2299 36.9999 18.8799 37.0299H18.8699ZM23.8199 3.66994C23.2699 2.77994 22.0999 2.50994 21.2199 3.05994C20.3399 3.60994 20.0599 4.77994 20.6099 5.65994C21.1599 6.53994 22.3299 6.81994 23.2099 6.26994C24.0899 5.71994 24.3699 4.54994 23.8199 3.66994ZM21.1599 64.7099C20.6099 63.8199 19.4399 63.5499 18.5599 64.0999C17.6799 64.6499 17.3999 65.8199 17.9499 66.6999C18.4999 67.5799 19.6699 67.8599 20.5499 67.3099C21.4399 66.7599 21.7099 65.5899 21.1599 64.7099ZM62.7099 32.7199C62.1599 31.8299 60.9899 31.5599 60.1099 32.1099C59.2299 32.6599 58.9499 33.8299 59.4999 34.7099C60.0499 35.5899 61.2199 35.8699 62.0999 35.3199C62.9799 34.7699 63.2599 33.5999 62.7099 32.7199ZM46.2099 20.5999C45.6599 19.7099 44.4899 19.4399 43.6099 19.9899C42.7299 20.5399 42.4499 21.7099 42.9999 22.5899C43.5499 23.4699 44.7199 23.7499 45.5999 23.1999C46.4799 22.6499 46.7599 21.4799 46.2099 20.5999ZM22.3499 41.9099C21.7999 41.0199 20.6299 40.7499 19.7499 41.2999C18.8699 41.8499 18.5899 43.0199 19.1399 43.8999C19.6899 44.7799 20.8599 45.0599 21.7399 44.5099C22.6199 43.9599 22.8999 42.7899 22.3499 41.9099Z" fill="url(#paint0_linear_235_1704)"/>
</g>
<defs>
<linearGradient id="paint0_linear_235_1704" x1="62.2399" y1="12.0099" x2="9.1799" y2="59.7799" gradientUnits="userSpaceOnUse">
<stop stop-color="#04F8FF"/>
<stop offset="0.2" stop-color="#03E3FE"/>
<stop offset="0.6" stop-color="#02ADFE"/>
<stop offset="1" stop-color="#0172FE"/>
</linearGradient>
<clipPath id="clip0_235_1704">
<rect width="319.4" height="71.63" fill="white"/>
</clipPath>
</defs>
</svg>
